Coordinates
version=1
nRows=16
nColumns=40
inDegrees=yes

Units are S.I. units (second, meters, Newtons, ...)
Angles are in degrees.

endheader
time	pelvis_tilt	pelvis_list	pelvis_rotation	pelvis_tx	pelvis_ty	pelvis_tz	hip_flexion_r	hip_adduction_r	hip_rotation_r	knee_angle_r	knee_angle_r_beta	ankle_angle_r	subtalar_angle_r	mtp_angle_r	hip_flexion_l	hip_adduction_l	hip_rotation_l	knee_angle_l	knee_angle_l_beta	ankle_angle_l	subtalar_angle_l	mtp_angle_l	lumbar_extension	lumbar_bending	lumbar_rotation	arm_flex_r	arm_add_r	arm_rot_r	elbow_flex_r	pro_sup_r	wrist_flex_r	wrist_dev_r	arm_flex_l	arm_add_l	arm_rot_l	elbow_flex_l	pro_sup_l	wrist_flex_l	wrist_dev_l
     12.64000000	     -4.98456613	     -7.32668492	      1.33224112	      1.06017796	      0.92662610	      0.50556915	     14.51795024	      5.04163984	    -17.40806995	     17.15886711	     17.15886711	      9.55250438	      0.50214554	     -2.44599829	     28.58034788	    -15.65179853	      2.40175039	     67.73799683	     67.73799683	      8.87699201	    -18.61402887	     11.66227850	    -10.34566724	      8.29391968	      3.87632888	     13.02637823	    -14.54369330	     -6.71133529	     49.91336962	     45.32978780	      0.00000000	      0.00000000	     11.59263638	     -6.77972779	     -0.17519817	     32.57162181	     44.95407841	      0.00000000	      0.00000000
     12.65121429	     -5.02507844	     -7.18791803	      1.60661605	      1.05898113	      0.92734348	      0.50608080	     13.69610732	      5.03354327	    -17.47444891	     16.61153195	     16.61153195	      9.79578192	      0.57654885	     -2.54449388	     30.27812888	    -15.41660935	      2.45241758	     66.33780567	     66.33780567	      9.31880651	    -18.76368296	     12.00760733	    -10.39100949	      8.04005637	      3.72487681	     15.50843793	    -14.50662519	     -6.83650672	     51.55422972	     45.29214944	      0.00000000	      0.00000000	     10.01147050	     -6.90564285	     -0.00317332	     30.77681716	     44.92563173	      0.00000000	      0.00000000
     12.66242857	     -4.97086989	     -7.12430720	      1.93720958	      1.05795964	      0.92807809	      0.50650306	     12.63298956	      5.16026206	    -17.48274451	     15.77767710	     15.77767710	     10.02418077	      0.66924416	     -2.69780018	     31.73504574	    -15.25000214	      2.47441746	     64.70847822	     64.70847822	      9.63366001	    -18.81139064	     12.63064500	    -10.47014066	      7.91570300	      3.52411573	     17.93950971	    -14.57015819	     -6.74874811	     53.68515743	     45.22970013	      0.00000000	      0.00000000	      8.50581832	     -6.97760052	      0.21025085	     28.64756788	     44.90407667	      0.00000000	      0.00000000
     12.67364286	     -4.94644875	     -7.06272834	      2.21787448	      1.05695299	      0.92871694	      0.50693270	     11.61918797	      5.29513704	    -17.45746566	     14.95683133	     14.95683133	     10.15829284	      0.72529306	     -2.84744268	     33.00061084	    -15.05229635	      2.44571080	     62.74689161	     62.74689161	      9.95556239	    -18.86012938	     13.34725040	    -10.60863526	      7.76048204	      3.49231813	     20.15346409	    -14.76071157	     -6.58642298	     55.85268134	     45.16307627	      0.00000000	      0.00000000	      7.08638999	     -7.02207024	      0.39254044	     26.74931424	     44.88801484	      0.00000000	      0.00000000
     12.68485714	     -4.92783847	     -6.96003376	      2.48883080	      1.05601279	      0.92924033	      0.50721113	     10.60771328	      5.38491803	    -17.42420036	     14.13059847	     14.13059847	     10.31296063	      0.77535206	     -2.98231702	     34.06674637	    -14.78153813	      2.32970322	     60.47835546	     60.47835546	     10.19921868	    -18.90576714	     14.09168350	    -10.68694652	      7.58807445	      3.52047562	     22.33788813	    -14.95976391	     -6.44804233	     58.00488926	     45.09841316	      0.00000000	      0.00000000	      5.67804285	     -7.08227771	      0.54156977	     25.14459690	     44.87187357	      0.00000000	      0.00000000
     12.69607143	     -4.94177447	     -6.91315352	      2.75477230	      1.05506610	      0.92953627	      0.50732562	      9.63614476	      5.52462007	    -17.41370295	     13.28872974	     13.28872974	     10.41535203	      0.84608471	     -3.23432229	     35.03578162	    -14.50440945	      2.24863531	     57.96327890	     57.96327890	     10.46211068	    -18.87936120	     14.95479102	    -10.75107846	      7.49727551	      3.58815056	     24.34793097	    -15.28563845	     -6.17932285	     60.51719420	     45.01961674	      0.00000000	      0.00000000	      4.33540145	     -7.12228469	      0.71121943	     23.55615483	     44.86260151	      0.00000000	      0.00000000
     12.70728571	     -4.95926148	     -6.81620477	      3.00669554	      1.05420571	      0.92970276	      0.50726354	      8.68515218	      5.59063655	    -17.39071867	     12.50783502	     12.50783502	     10.60959852	      0.94235324	     -3.41208973	     35.78728098	    -14.10999471	      2.15353193	     55.09752859	     55.09752859	     10.59026563	    -18.84739222	     15.52990028	    -10.79904410	      7.33479887	      3.64843059	     26.38305205	    -15.53167803	     -6.08869342	     62.79449238	     44.95503219	      0.00000000	      0.00000000	      2.85421298	     -7.21888201	      0.81807080	     22.43883356	     44.84644715	      0.00000000	      0.00000000
     12.71850000	     -5.02020574	     -6.81919061	      3.26718760	      1.05335645	      0.92959217	      0.50703802	      7.76216684	      5.74923935	    -17.43817678	     11.67788980	     11.67788980	     10.72838150	      1.14847927	     -3.74127563	     36.47915359	    -13.72323930	      2.22074425	     52.00184411	     52.00184411	     10.57222085	    -18.72158939	     15.87024972	    -10.80668918	      7.32915599	      3.71322115	     28.21961743	    -15.88386827	     -5.81125758	     65.82620003	     44.86410159	      0.00000000	      0.00000000	      1.34217407	     -7.30261741	      0.96608338	     21.52826066	     44.83197402	      0.00000000	      0.00000000
     12.72971429	     -5.10574871	     -6.61257490	      3.46297653	      1.05256761	      0.92939776	      0.50650543	      6.94770041	      5.63763742	    -17.41099737	     11.05650070	     11.05650070	     11.02849207	      1.25569233	     -3.88379739	     36.87130268	    -13.06242809	      2.18027916	     48.49864852	     48.49864852	     10.53358228	    -18.53931509	     16.05431461	    -10.75894952	      7.06723247	      3.83316159	     30.17282420	    -16.12523253	     -5.85300198	     67.86373336	     44.81266717	      0.00000000	      0.00000000	     -0.17922973	     -7.45524558	      1.01926089	     20.94832622	     44.80885218	      0.00000000	      0.00000000
     12.74092857	     -5.23716465	     -6.61399232	      3.68848939	      1.05188152	      0.92880413	      0.50588113	      6.10938760	      5.74343919	    -17.60675155	     10.28300538	     10.28300538	     11.21530258	      1.70217085	     -4.32547136	     37.23841569	    -12.54830130	      2.37896622	     44.82084985	     44.82084985	     10.08316707	    -18.10506557	     14.99170324	    -10.70263103	      7.09674495	      3.97277907	     31.66611257	    -16.68179525	     -5.47286563	     71.82094912	     44.69988098	      0.00000000	      0.00000000	     -1.93365906	     -7.60654398	      1.22650524	     20.99607739	     44.77145720	      0.00000000	      0.00000000
     12.75214286	     -5.31360978	     -6.53484117	      3.86660871	      1.05134236	      0.92811718	      0.50508055	      5.29677609	      5.73067796	    -17.67323867	      9.72768474	      9.72768474	     11.53571145	      2.00767648	     -4.70989285	     37.29568147	    -11.96632165	      2.55063926	     40.87106356	     40.87106356	      9.34555072	    -17.41270382	     13.16816142	    -10.66918374	      7.02840422	      4.27327827	     33.24944010	    -17.22550569	     -5.47191395	     75.17034492	     44.64710588	      0.00000000	      0.00000000	     -3.64400014	     -7.81931009	      1.82601369	     21.27190578	     44.68270778	      0.00000000	      0.00000000
     12.76335714	     -5.41159793	     -6.45373484	      4.04080761	      1.05090463	      0.92727310	      0.50419651	      4.53294402	      5.71100174	    -17.70591775	      9.24054217	      9.24054217	     11.93567895	      2.18387032	     -4.80507041	     37.30734761	    -11.36047795	      2.82643141	     36.98708317	     36.98708317	      9.40741843	    -16.09637485	     13.23189890	    -10.52484159	      6.94184481	      4.15758458	     35.31652159	    -17.12776130	     -5.54914340	     77.15866210	     44.60236157	      0.00000000	      0.00000000	     -5.29581919	     -7.94996736	      1.94347538	     20.80308176	     44.63979550	      0.00000000	      0.00000000
     12.77457143	     -5.47479460	     -6.51362709	      4.25918317	      1.05066403	      0.92616058	      0.50313525	      3.69410910	      5.83107118	    -17.92624664	      8.69962628	      8.69962628	     12.35530563	      2.66875323	     -4.94021792	     37.26595294	    -10.93436044	      3.11658876	     33.21243890	     33.21243890	      9.31840623	    -14.28138391	     12.70277548	    -10.45384708	      7.08140023	      3.95141057	     37.22235184	    -17.10334474	     -5.32854411	     80.23604065	     44.52020154	      0.00000000	      0.00000000	     -7.15102891	     -8.04431835	      2.12083357	     20.90392275	     44.58002616	      0.00000000	      0.00000000
     12.78578571	     -5.55293432	     -6.45635808	      4.38521993	      1.05058439	      0.92495986	      0.50207357	      2.97691490	      5.79094122	    -17.95666374	      8.41027390	      8.41027390	     12.84659049	      2.91019257	     -5.09047488	     37.05908792	    -10.48522169	      3.17103206	     29.47663168	     29.47663168	      9.32760540	    -12.19931467	     12.65610575	    -10.30912718	      7.01813798	      4.02863443	     39.05802622	    -17.24050030	     -5.26729588	     82.46428381	     44.46458534	      0.00000000	      0.00000000	     -8.78088917	     -8.16223120	      2.21959445	     20.83758938	     44.53468501	      0.00000000	      0.00000000
     12.79700000	     -5.57803596	     -6.47047650	      4.53683224	      1.05073882	      0.92358578	      0.50087122	      2.19387921	      5.82675243	    -18.05215384	      8.12391270	      8.12391270	     13.36508923	      3.19408631	     -5.22393661	     36.81672134	    -10.13515053	      3.16250674	     26.07410472	     26.07410472	      9.30052729	    -10.05676567	     12.66300407	    -10.18738928	      7.08706286	      3.96732847	     40.85537249	    -17.23671062	     -5.09864780	     85.02374689	     44.39540164	      0.00000000	      0.00000000	    -10.45256457	     -8.22537895	      2.32796435	     20.86247186	     44.48457699	      0.00000000	      0.00000000
     12.80821429	     -5.58070912	     -6.48167643	      4.67845020	      1.05114587	      0.92209700	      0.49950843	      1.39962560	      5.84302363	    -18.14748793	      7.90498520	      7.90498520	     13.93293414	      3.44770977	     -5.33972441	     36.53592683	     -9.80739554	      3.00020535	     23.05243227	     23.05243227	      9.26036912	     -8.09163362	     12.77806794	    -10.07341875	      7.19902520	      3.91364411	     42.55741087	    -17.20719561	     -4.87691403	     87.61173956	     44.32415331	      0.00000000	      0.00000000	    -12.07281092	     -8.26181668	      2.44578045	     20.95466633	     44.43279026	      0.00000000	      0.00000000
